<svg width="20" height="19" viewBox="0 0 20 19" fill="none" xmlns="http://www.w3.org/2000/svg">
<path d="M11.4349 2.6182L11.4351 2.61839L15.995 5.80874C15.9951 5.80876 15.9951 5.80878 15.9951 5.8088C16.3497 6.05706 16.6914 6.46907 16.9449 6.95458C17.1984 7.44013 17.3414 7.95652 17.3414 8.39163V13.7591C17.3414 15.5017 15.9265 16.9166 14.1839 16.9166H5.64969C3.90849 16.9166 2.49219 15.4952 2.49219 13.7512V8.28871C2.49219 7.88552 2.62143 7.39541 2.85243 6.92624C3.08329 6.45735 3.39451 6.05267 3.71679 5.8013L3.71689 5.80121L7.68177 2.70687C7.68198 2.7067 7.6822 2.70653 7.68242 2.70636C8.70467 1.91481 10.3717 1.87329 11.4349 2.6182ZM9.91677 15.3437C10.5175 15.3437 11.0105 14.8507 11.0105 14.25V11.875C11.0105 11.2742 10.5175 10.7812 9.91677 10.7812C9.31605 10.7812 8.82302 11.2742 8.82302 11.875V14.25C8.82302 14.8507 9.31605 15.3437 9.91677 15.3437Z" stroke="#F4F4F4"/>
</svg>
