<svg width="22" height="21" viewBox="0 0 22 21" fill="none" xmlns="http://www.w3.org/2000/svg">
<path d="M10.3489 7.13125C10.1389 7.36125 10.0207 7.67875 10.0207 7.9975C10.0207 8.16326 9.95161 8.32223 9.82854 8.43944C9.70547 8.55665 9.53855 8.6225 9.3645 8.6225C9.19045 8.6225 9.02353 8.55665 8.90046 8.43944C8.77739 8.32223 8.70825 8.16326 8.70825 7.9975C8.70825 7.40625 8.91956 6.785 9.3645 6.305C9.81993 5.8125 10.4932 5.4975 11.3332 5.4975C12.1732 5.4975 12.8466 5.8125 13.302 6.305C13.7469 6.78625 13.9582 7.405 13.9582 7.9975C13.9582 8.61 13.806 9.085 13.5619 9.485C13.3479 9.83375 13.0684 10.11 12.8466 10.3312L12.7914 10.385C12.5473 10.6287 12.3596 10.8275 12.2218 11.0775C12.0906 11.3162 11.9895 11.6325 11.9895 12.1137C11.9895 12.2795 11.9204 12.4385 11.7973 12.5557C11.6742 12.6729 11.5073 12.7387 11.3332 12.7387C11.1592 12.7387 10.9923 12.6729 10.8692 12.5557C10.7461 12.4385 10.677 12.2795 10.677 12.1137C10.677 11.4487 10.8214 10.93 11.0589 10.4975C11.2912 10.0762 11.5971 9.7675 11.8438 9.52125L11.8727 9.4925C12.1194 9.24625 12.2953 9.07125 12.4279 8.855C12.5526 8.65125 12.6457 8.39375 12.6457 7.9975C12.6457 7.67875 12.5289 7.36 12.3176 7.13125C12.1168 6.915 11.8057 6.7475 11.3332 6.7475C10.8607 6.7475 10.5497 6.915 10.3489 7.13125ZM11.3332 15.7625C11.4567 15.7669 11.5799 15.7476 11.6954 15.7057C11.8108 15.6637 11.9162 15.6001 12.0052 15.5184C12.0942 15.4368 12.1651 15.3389 12.2134 15.2306C12.2618 15.1223 12.2867 15.0058 12.2867 14.8881C12.2867 14.7704 12.2618 14.6539 12.2134 14.5456C12.1651 14.4373 12.0942 14.3395 12.0052 14.2578C11.9162 14.1762 11.8108 14.1125 11.6954 14.0706C11.5799 14.0286 11.4567 14.0093 11.3332 14.0137C11.0896 14.0137 10.8559 14.1059 10.6836 14.27C10.5113 14.4341 10.4145 14.6567 10.4145 14.8887C10.4145 15.1208 10.5113 15.3434 10.6836 15.5075C10.8559 15.6716 11.0896 15.7637 11.3332 15.7637M0.833253 10.4975C0.833826 8.31228 1.58596 6.18739 2.97462 4.44782C4.36328 2.70826 6.31202 1.44978 8.52278 0.864878C10.7335 0.279974 13.0846 0.400841 15.2164 1.20899C17.3482 2.01715 19.1434 3.46809 20.3274 5.33991C21.5113 7.21174 22.0189 9.40139 21.7725 11.574C21.5261 13.7466 20.5392 15.7825 18.9628 17.3703C17.3865 18.9581 15.3074 20.0105 13.0435 20.3664C10.7797 20.7224 8.45573 20.3623 6.42712 19.3412L1.64963 20.4787C1.53967 20.5051 1.42444 20.5038 1.31514 20.4751C1.20585 20.4464 1.10623 20.3912 1.026 20.3149C0.945767 20.2386 0.887654 20.1438 0.857325 20.0398C0.826996 19.9358 0.825485 19.826 0.852941 19.7212L2.04731 15.17C1.2492 13.7299 0.832445 12.1259 0.833253 10.4975ZM11.3332 1.7475C9.72987 1.74704 8.15428 2.14621 6.76306 2.90534C5.37185 3.66447 4.21346 4.75713 3.40302 6.07472C2.59257 7.39232 2.1583 8.88897 2.14335 10.4159C2.1284 11.9429 2.5333 13.447 3.31781 14.7787C3.40021 14.9177 3.42368 15.0814 3.38344 15.2362L2.39119 19.0137L6.35756 18.0687C6.52019 18.0304 6.69206 18.0528 6.83794 18.1312C8.06284 18.7848 9.42871 19.1622 10.8307 19.2346C12.2326 19.3071 13.6334 19.0725 14.9253 18.549C16.2172 18.0255 17.366 17.2269 18.2834 16.2147C19.2007 15.2024 19.8623 14.0034 20.2173 12.7097C20.5722 11.416 20.6111 10.062 20.331 8.75171C20.0509 7.44144 19.4592 6.20974 18.6013 5.15122C17.7435 4.09269 16.6423 3.23549 15.3823 2.64545C14.1224 2.05541 12.7373 1.74823 11.3332 1.7475Z" fill="#EEEEEE"/>
</svg>
